<?xml version="1.0" encoding="UTF-8" standalone="no"?>
<!DOCTYPE svg PUBLIC "-//W3C//DTD SVG 1.1//EN"
 "http://www.w3.org/Graphics/SVG/1.1/DTD/svg11.dtd">
<!-- Generated by graphviz version 2.47.0 (0)
 -->
<!-- Title: polymer flow diagram Pages: 1 -->
<svg width="1039pt" height="250pt"
 viewBox="0.00 0.00 1038.81 250.00" xmlns="http://www.w3.org/2000/svg" xmlns:xlink="http://www.w3.org/1999/xlink">
<g id="graph0" class="graph" transform="scale(1 1) rotate(0) translate(4 246)">
<title>polymer flow diagram</title>
<polygon fill="white" stroke="transparent" points="-4,4 -4,-246 1034.81,-246 1034.81,4 -4,4"/>
<!-- gas -->
<g id="node1" class="node">
<title>gas</title>
<ellipse fill="none" stroke="black" cx="57.84" cy="-170" rx="51.19" ry="18"/>
<text text-anchor="middle" x="57.84" y="-166.3" font-family="Times New Roman,serif" font-size="14.00">Natural gas</text>
</g>
<!-- process -->
<g id="node4" class="node">
<title>process</title>
<polygon fill="none" stroke="black" points="229.69,-216 151.69,-216 151.69,-178 229.69,-178 229.69,-216"/>
<text text-anchor="middle" x="190.69" y="-200.8" font-family="Times New Roman,serif" font-size="14.00">Polymer</text>
<text text-anchor="middle" x="190.69" y="-185.8" font-family="Times New Roman,serif" font-size="14.00">production</text>
</g>
<!-- gas&#45;&gt;process -->
<g id="edge1" class="edge">
<title>gas&#45;&gt;process</title>
<path fill="none" stroke="black" d="M108.31,-173.64C119.28,-175.65 130.89,-178.06 141.8,-180.59"/>
<polygon fill="black" stroke="black" points="141.04,-184 151.58,-182.94 142.67,-177.2 141.04,-184"/>
</g>
<!-- gas&#45;&gt;process -->
<g id="edge4" class="edge">
<title>gas&#45;&gt;process</title>
<path fill="none" stroke="red" stroke-dasharray="5,2" d="M93.22,-183.12C107.88,-186.88 125.25,-190.64 141.18,-193.53"/>
<polygon fill="red" stroke="red" points="140.94,-197.05 151.39,-195.3 142.14,-190.15 140.94,-197.05"/>
</g>
<!-- powerplant -->
<g id="node8" class="node">
<title>powerplant</title>
<polygon fill="none" stroke="black" points="218.19,-160 163.19,-160 163.19,-122 218.19,-122 218.19,-160"/>
<text text-anchor="middle" x="190.69" y="-144.8" font-family="Times New Roman,serif" font-size="14.00">Gas</text>
<text text-anchor="middle" x="190.69" y="-129.8" font-family="Times New Roman,serif" font-size="14.00">turbine</text>
</g>
<!-- gas&#45;&gt;powerplant -->
<g id="edge2" class="edge">
<title>gas&#45;&gt;powerplant</title>
<path fill="none" stroke="red" stroke-dasharray="5,2" d="M101.69,-160.5C118.32,-156.82 137.17,-152.64 153.14,-149.1"/>
<polygon fill="red" stroke="red" points="154.17,-152.46 163.17,-146.88 152.65,-145.62 154.17,-152.46"/>
</g>
<!-- raw -->
<g id="node2" class="node">
<title>raw</title>
<ellipse fill="none" stroke="black" cx="57.84" cy="-224" rx="57.69" ry="18"/>
<text text-anchor="middle" x="57.84" y="-220.3" font-family="Times New Roman,serif" font-size="14.00">Raw material</text>
</g>
<!-- raw&#45;&gt;process -->
<g id="edge3" class="edge">
<title>raw&#45;&gt;process</title>
<path fill="none" stroke="black" d="M106.45,-214.18C117.87,-211.82 130.07,-209.3 141.51,-206.94"/>
<polygon fill="black" stroke="black" points="142.24,-210.36 151.33,-204.92 140.83,-203.51 142.24,-210.36"/>
</g>
<!-- polymer -->
<g id="node3" class="node">
<title>polymer</title>
<ellipse fill="none" stroke="black" cx="436.23" cy="-207" rx="40.89" ry="18"/>
<text text-anchor="middle" x="436.23" y="-203.3" font-family="Times New Roman,serif" font-size="14.00">Polymer</text>
</g>
<!-- pump -->
<g id="node5" class="node">
<title>pump</title>
<ellipse fill="none" stroke="black" cx="646.67" cy="-117" rx="32.49" ry="32.49"/>
<polyline fill="none" stroke="black" points="668.16,-141.37 625.17,-141.37 "/>
<polyline fill="none" stroke="black" points="668.16,-92.63 625.17,-92.63 "/>
<text text-anchor="middle" x="646.67" y="-113.3" font-family="Times New Roman,serif" font-size="14.00">Pump</text>
</g>
<!-- polymer&#45;&gt;pump -->
<g id="edge6" class="edge">
<title>polymer&#45;&gt;pump</title>
<path fill="none" stroke="black" d="M467.39,-195.12C496.06,-183.7 540.3,-165.75 578.17,-149 587.96,-144.67 598.47,-139.8 608.2,-135.19"/>
<polygon fill="black" stroke="black" points="609.72,-138.34 617.24,-130.88 606.71,-132.02 609.72,-138.34"/>
</g>
<!-- process&#45;&gt;polymer -->
<g id="edge5" class="edge">
<title>process&#45;&gt;polymer</title>
<path fill="none" stroke="black" d="M230.02,-202.51C241.47,-203.93 254.07,-205.26 265.69,-206 305.75,-208.55 351.25,-208.66 385.02,-208.22"/>
<polygon fill="black" stroke="black" points="385.16,-211.71 395.1,-208.06 385.05,-204.72 385.16,-211.71"/>
</g>
<!-- co2 -->
<g id="node15" class="node">
<title>co2</title>
<ellipse fill="gray" stroke="black" cx="312.49" cy="-170" rx="45.92" ry="26.74"/>
<text text-anchor="middle" x="312.49" y="-173.8" font-family="Times New Roman,serif" font-size="14.00" fill="white">CO2</text>
<text text-anchor="middle" x="312.49" y="-158.8" font-family="Times New Roman,serif" font-size="14.00" fill="white">emission</text>
</g>
<!-- process&#45;&gt;co2 -->
<g id="edge8" class="edge">
<title>process&#45;&gt;co2</title>
<path fill="none" stroke="gray" stroke-dasharray="1,5" d="M229.92,-188.38C239.37,-186.25 249.65,-183.94 259.63,-181.69"/>
<polygon fill="gray" stroke="gray" points="260.48,-185.08 269.47,-179.47 258.94,-178.25 260.48,-185.08"/>
</g>
<!-- reservoir -->
<g id="node14" class="node">
<title>reservoir</title>
<polygon fill="black" stroke="white" points="786.16,-126 719.16,-126 715.16,-122 715.16,-90 782.16,-90 786.16,-94 786.16,-126"/>
<polyline fill="none" stroke="white" points="782.16,-122 715.16,-122 "/>
<polyline fill="none" stroke="white" points="782.16,-122 782.16,-90 "/>
<polyline fill="none" stroke="white" points="782.16,-122 786.16,-126 "/>
<text text-anchor="middle" x="750.66" y="-104.3" font-family="Times New Roman,serif" font-size="14.00" fill="white">Reservoir</text>
</g>
<!-- pump&#45;&gt;reservoir -->
<g id="edge15" class="edge">
<title>pump&#45;&gt;reservoir</title>
<path fill="none" stroke="black" d="M679.1,-114.23C687.26,-113.51 696.21,-112.72 704.91,-111.95"/>
<polygon fill="black" stroke="black" points="705.3,-115.43 714.96,-111.06 704.69,-108.45 705.3,-115.43"/>
</g>
<!-- seawater -->
<g id="node6" class="node">
<title>seawater</title>
<ellipse fill="none" stroke="black" cx="312.49" cy="-107" rx="43.59" ry="18"/>
<text text-anchor="middle" x="312.49" y="-103.3" font-family="Times New Roman,serif" font-size="14.00">Seawater</text>
</g>
<!-- watertreatment -->
<g id="node7" class="node">
<title>watertreatment</title>
<polygon fill="none" stroke="black" points="470.23,-142 402.23,-142 402.23,-104 470.23,-104 470.23,-142"/>
<text text-anchor="middle" x="436.23" y="-126.8" font-family="Times New Roman,serif" font-size="14.00">Water</text>
<text text-anchor="middle" x="436.23" y="-111.8" font-family="Times New Roman,serif" font-size="14.00">treatment</text>
</g>
<!-- seawater&#45;&gt;watertreatment -->
<g id="edge7" class="edge">
<title>seawater&#45;&gt;watertreatment</title>
<path fill="none" stroke="black" d="M354.36,-112.37C366.45,-113.96 379.72,-115.71 391.96,-117.31"/>
<polygon fill="black" stroke="black" points="391.57,-120.79 401.94,-118.63 392.48,-113.85 391.57,-120.79"/>
</g>
<!-- water -->
<g id="node10" class="node">
<title>water</title>
<ellipse fill="none" stroke="blue" cx="545.67" cy="-122" rx="32.49" ry="18"/>
<text text-anchor="middle" x="545.67" y="-118.3" font-family="Times New Roman,serif" font-size="14.00">Water</text>
</g>
<!-- watertreatment&#45;&gt;water -->
<g id="edge13" class="edge">
<title>watertreatment&#45;&gt;water</title>
<path fill="none" stroke="black" d="M470.34,-122.69C480.62,-122.6 492.09,-122.49 502.88,-122.39"/>
<polygon fill="black" stroke="black" points="502.99,-125.89 512.95,-122.3 502.92,-118.89 502.99,-125.89"/>
</g>
<!-- electricity -->
<g id="node9" class="node">
<title>electricity</title>
<ellipse fill="none" stroke="red" stroke-dasharray="5,2" cx="312.49" cy="-53" rx="46.59" ry="18"/>
<text text-anchor="middle" x="312.49" y="-49.3" font-family="Times New Roman,serif" font-size="14.00" fill="red">Electricity</text>
</g>
<!-- powerplant&#45;&gt;electricity -->
<g id="edge10" class="edge">
<title>powerplant&#45;&gt;electricity</title>
<path fill="none" stroke="red" stroke-dasharray="5,2" d="M213,-121.92C227.42,-109.4 247.14,-92.99 265.69,-80 269,-77.68 272.51,-75.37 276.07,-73.13"/>
<polygon fill="red" stroke="red" points="278.18,-75.93 284.89,-67.73 274.53,-69.96 278.18,-75.93"/>
</g>
<!-- powerplant&#45;&gt;co2 -->
<g id="edge9" class="edge">
<title>powerplant&#45;&gt;co2</title>
<path fill="none" stroke="gray" stroke-dasharray="1,5" d="M218.28,-147.44C230.49,-150.39 245.4,-154 259.69,-157.46"/>
<polygon fill="gray" stroke="gray" points="258.9,-160.87 269.44,-159.82 260.55,-154.07 258.9,-160.87"/>
</g>
<!-- electricity&#45;&gt;pump -->
<g id="edge12" class="edge">
<title>electricity&#45;&gt;pump</title>
<path fill="none" stroke="red" stroke-dasharray="5,2" d="M357.93,-57.88C410.86,-64.19 501.72,-76.6 578.17,-95 587.32,-97.2 597.02,-100.05 606.12,-102.96"/>
<polygon fill="red" stroke="red" points="605.12,-106.32 615.72,-106.12 607.31,-99.67 605.12,-106.32"/>
</g>
<!-- electricity&#45;&gt;watertreatment -->
<g id="edge11" class="edge">
<title>electricity&#45;&gt;watertreatment</title>
<path fill="none" stroke="red" stroke-dasharray="5,2" d="M339.3,-67.85C354.88,-76.8 375.09,-88.42 392.95,-98.69"/>
<polygon fill="red" stroke="red" points="391.62,-101.96 402.03,-103.91 395.11,-95.89 391.62,-101.96"/>
</g>
<!-- separator -->
<g id="node11" class="node">
<title>separator</title>
<ellipse fill="none" stroke="black" cx="874.49" cy="-103" rx="52.15" ry="37.45"/>
<text text-anchor="middle" x="874.49" y="-114.3" font-family="Times New Roman,serif" font-size="14.00">Lift and</text>
<text text-anchor="middle" x="874.49" y="-99.3" font-family="Times New Roman,serif" font-size="14.00">separation</text>
<text text-anchor="middle" x="874.49" y="-84.3" font-family="Times New Roman,serif" font-size="14.00">process</text>
</g>
<!-- electricity&#45;&gt;separator -->
<g id="edge19" class="edge">
<title>electricity&#45;&gt;separator</title>
<path fill="none" stroke="red" stroke-dasharray="5,2" d="M345.71,-40.05C360.6,-34.47 378.64,-28.25 395.28,-24 460.44,-7.36 477.42,0 544.67,0 544.67,0 544.67,0 647.67,0 716.14,0 786.62,-39.69 830.23,-69.79"/>
<polygon fill="red" stroke="red" points="828.39,-72.78 838.58,-75.67 832.42,-67.05 828.39,-72.78"/>
</g>
<!-- water_treatment -->
<g id="node13" class="node">
<title>water_treatment</title>
<polygon fill="none" stroke="black" points="1030.81,-62 962.81,-62 962.81,-24 1030.81,-24 1030.81,-62"/>
<text text-anchor="middle" x="996.81" y="-46.8" font-family="Times New Roman,serif" font-size="14.00">Water</text>
<text text-anchor="middle" x="996.81" y="-31.8" font-family="Times New Roman,serif" font-size="14.00">treatment</text>
</g>
<!-- electricity&#45;&gt;water_treatment -->
<g id="edge20" class="edge">
<title>electricity&#45;&gt;water_treatment</title>
<path fill="none" stroke="red" stroke-dasharray="5,2" d="M357.75,-48.42C404.24,-44.01 479.51,-38 544.67,-38 544.67,-38 544.67,-38 751.66,-38 821.97,-38 903.64,-40.1 952.45,-41.58"/>
<polygon fill="red" stroke="red" points="952.54,-45.08 962.65,-41.89 952.76,-38.08 952.54,-45.08"/>
</g>
<!-- water&#45;&gt;pump -->
<g id="edge14" class="edge">
<title>water&#45;&gt;pump</title>
<path fill="none" stroke="black" d="M578.27,-120.4C586.39,-119.99 595.26,-119.55 603.82,-119.11"/>
<polygon fill="black" stroke="black" points="604.22,-122.6 614.03,-118.6 603.87,-115.61 604.22,-122.6"/>
</g>
<!-- oil -->
<g id="node12" class="node">
<title>oil</title>
<path fill="none" stroke="black" d="M1023.81,-117.73C1023.81,-119.53 1011.71,-121 996.81,-121 981.92,-121 969.81,-119.53 969.81,-117.73 969.81,-117.73 969.81,-88.27 969.81,-88.27 969.81,-86.47 981.92,-85 996.81,-85 1011.71,-85 1023.81,-86.47 1023.81,-88.27 1023.81,-88.27 1023.81,-117.73 1023.81,-117.73"/>
<path fill="none" stroke="black" d="M1023.81,-117.73C1023.81,-115.92 1011.71,-114.45 996.81,-114.45 981.92,-114.45 969.81,-115.92 969.81,-117.73"/>
<text text-anchor="middle" x="996.81" y="-99.3" font-family="Times New Roman,serif" font-size="14.00">Oil</text>
</g>
<!-- separator&#45;&gt;oil -->
<g id="edge17" class="edge">
<title>separator&#45;&gt;oil</title>
<path fill="none" stroke="black" d="M926.87,-103C937.87,-103 949.26,-103 959.55,-103"/>
<polygon fill="black" stroke="black" points="959.8,-106.5 969.8,-103 959.8,-99.5 959.8,-106.5"/>
</g>
<!-- separator&#45;&gt;water_treatment -->
<g id="edge18" class="edge">
<title>separator&#45;&gt;water_treatment</title>
<path fill="none" stroke="black" d="M917.91,-81.85C929.44,-76.1 941.93,-69.87 953.46,-64.12"/>
<polygon fill="black" stroke="black" points="955.07,-67.23 962.46,-59.63 951.95,-60.96 955.07,-67.23"/>
</g>
<!-- reservoir&#45;&gt;separator -->
<g id="edge16" class="edge">
<title>reservoir&#45;&gt;separator</title>
<path fill="none" stroke="black" d="M786.25,-106.58C794.24,-106.25 802.97,-105.89 811.73,-105.53"/>
<polygon fill="black" stroke="black" points="812.14,-109.02 821.98,-105.11 811.85,-102.03 812.14,-109.02"/>
</g>
</g>
</svg>
